<svg width="199" height="165" viewBox="0 0 199 165" fill="none" xmlns="http://www.w3.org/2000/svg">
<path d="M169.22 31.2499C167.167 31.01 165.109 30.7763 163.038 30.5672L162.42 30.4996L162.005 30.4319C161.869 30.4319 161.733 30.4319 161.591 30.4319C161.452 30.4165 161.311 30.4165 161.171 30.4319C160.594 30.4594 160.023 30.5692 159.477 30.7579C158.902 30.9637 158.357 31.245 157.857 31.5944C157.348 31.9695 156.891 32.41 156.497 32.9044C156.088 33.4172 155.757 33.987 155.514 34.5958C155.385 34.9084 155.276 35.2288 155.187 35.5552L155.088 36.0596L155.038 36.3178L155.001 36.693L153.839 48.9938L152.714 61.2946C152.699 61.4772 152.647 61.6549 152.562 61.8174C152.477 61.9799 152.36 62.1239 152.218 62.2412C152.077 62.3585 151.914 62.4467 151.738 62.5007C151.562 62.5546 151.377 62.5732 151.193 62.5555C150.866 62.5267 150.56 62.3848 150.327 62.1544C150.094 61.924 149.95 61.6198 149.92 61.2946L148.801 48.9938L147.639 36.693L147.602 36.3055V35.7951C147.602 35.4506 147.602 35.1123 147.602 34.7679C147.63 34.077 147.704 33.3887 147.824 32.7075C148.063 31.3245 148.494 29.9812 149.104 28.7159C149.729 27.4308 150.526 26.2351 151.471 25.161C152.445 24.0769 153.554 23.1219 154.773 22.3195C156.027 21.5099 157.387 20.8766 158.816 20.4375C159.172 20.3168 159.535 20.2182 159.904 20.1423C160.275 20.0623 160.645 19.9762 161.016 19.9086L162.142 19.7671L163.063 19.6687C165.121 19.4534 167.18 19.2197 169.245 18.9799C170.881 18.7929 172.526 19.2597 173.817 20.2779C175.108 21.2961 175.941 22.7825 176.131 24.4106C176.225 25.2171 176.158 26.0341 175.935 26.815C175.711 27.5958 175.335 28.3252 174.828 28.9614C174.322 29.5977 173.694 30.1284 172.981 30.5231C172.268 30.9179 171.483 31.169 170.673 31.2622C170.189 31.3123 169.702 31.3081 169.22 31.2499Z" fill="#18181A"/>
<path d="M98.759 5.02458L102.678 5.37519L104.632 5.54126L105.726 5.63346C106.208 5.67651 106.69 5.72572 107.173 5.79338C110.976 6.40924 114.443 8.33073 116.971 11.2242C119.405 14.0092 120.783 17.5536 120.866 21.2432V21.9136C120.876 22.1185 120.876 22.3238 120.866 22.5287L120.798 23.5066L120.649 25.4501L120.359 29.3495L119.197 44.9284L118.078 60.5074C118.064 60.6904 118.015 60.8689 117.932 61.0329C117.849 61.1969 117.735 61.343 117.596 61.463C117.456 61.5829 117.294 61.6743 117.119 61.732C116.944 61.7896 116.759 61.8124 116.575 61.799C116.239 61.7748 115.923 61.6309 115.685 61.3937C115.446 61.1566 115.302 60.842 115.277 60.5074L114.158 44.9284L112.996 29.3495L112.706 25.4501L112.563 23.5066L112.489 22.5287C112.48 22.4065 112.461 22.2851 112.434 22.1658L112.384 21.8644C112.104 20.3142 111.259 18.9214 110.01 17.9527C108.879 17.0706 107.471 16.6153 106.035 16.6673L98.7838 17.2824C97.9728 17.3558 97.1552 17.2691 96.378 17.0273C95.6008 16.7855 94.8792 16.3934 94.2548 15.8733C93.6304 15.3532 93.1154 14.7155 92.7395 13.9969C92.3635 13.2782 92.1339 12.4927 92.064 11.6855C91.991 10.8792 92.0787 10.0664 92.3222 9.29382C92.5656 8.52128 92.96 7.80416 93.4827 7.1836C94.0053 6.56304 94.646 6.05126 95.3679 5.67761C96.0898 5.30395 96.8788 5.07571 97.6896 5.00611C98.0459 4.98028 98.4038 4.98648 98.759 5.02458Z" fill="#18181A"/>
<path d="M167.483 125.997C167.561 128.222 167.353 130.448 166.865 132.621C166.375 134.912 165.463 137.093 164.176 139.054C162.744 141.19 160.74 142.884 158.389 143.944C155.998 144.961 153.41 145.442 150.81 145.352H150.742C150.309 145.347 149.88 145.256 149.482 145.085C149.083 144.914 148.723 144.667 148.421 144.357C148.119 144.048 147.881 143.682 147.721 143.28C147.562 142.879 147.483 142.45 147.491 142.019C147.497 141.588 147.589 141.162 147.761 140.767C147.933 140.371 148.182 140.013 148.493 139.713C148.804 139.413 149.172 139.177 149.575 139.019C149.978 138.86 150.408 138.782 150.841 138.79C151.081 138.793 151.319 138.822 151.552 138.876C153.226 139.318 154.977 139.394 156.683 139.097C158.411 138.74 160 137.899 161.264 136.674C162.666 135.291 163.8 133.663 164.609 131.871C165.485 129.989 166.118 128.006 166.494 125.966C166.504 125.902 166.528 125.84 166.562 125.785C166.597 125.73 166.643 125.683 166.696 125.645C166.75 125.608 166.811 125.582 166.875 125.568C166.939 125.555 167.005 125.554 167.069 125.566C167.176 125.583 167.274 125.634 167.349 125.712C167.424 125.79 167.471 125.89 167.483 125.997Z" fill="#18181A"/>
<path d="M97.8076 154.24L104.83 95.5894H78.7178L78.6621 54.8491H142.886C144.225 54.8491 145.55 55.1115 146.787 55.6213C148.023 56.1311 149.146 56.8782 150.092 57.82C151.039 58.7619 151.789 59.88 152.3 61.1104C152.812 62.3409 153.075 63.6596 153.074 64.9911V158.071H100.571" fill="white" stroke="#18181A" stroke-width="2" stroke-miterlimit="10" stroke-linecap="round"/>
<path d="M153.092 150.334H163.602V148.913C163.602 147.623 164.117 146.384 165.034 145.471C165.95 144.558 167.194 144.044 168.492 144.042C169.789 144.044 171.033 144.558 171.95 145.471C172.867 146.384 173.382 147.623 173.382 148.913V158.071H77.8828V148.913C77.8828 147.623 78.3978 146.384 79.3147 145.471C80.2315 144.558 81.4753 144.044 82.7728 144.042C84.0708 144.044 85.3152 144.558 86.233 145.471C87.1508 146.384 87.6672 147.622 87.6688 148.913V150.334H98.1782" fill="white" stroke="#18181A" stroke-width="2" stroke-linecap="round" stroke-linejoin="bevel"/>
<path d="M100.762 69.3147H117.064A8.151 18.8202 0 01100.762 69.3147Z" fill="white" stroke="#18181A" stroke-width="2" stroke-miterlimit="10" stroke-linecap="round"/>
<path d="M117.064 69.3147H133.366A8.151 18.8202 0 01117.064 69.3147Z" fill="white" stroke="#18181A" stroke-width="2" stroke-miterlimit="10" stroke-linecap="round"/>
<circle cx="113" cy="73" r="4" fill="#18181A"/>
<circle cx="129" cy="73" r="4" fill="#18181A"/>
<path d="M74.5078 95.5833H111.667" stroke="#18181A" stroke-width="2" stroke-miterlimit="10" stroke-linecap="round"/>
<path d="M76.4182 54.8552H81.475V95.5832H76.4367C73.8949 95.5856 71.3775 95.0899 69.0282 94.1244C66.679 93.1589 64.5438 91.7425 62.7448 89.956C60.9457 88.1696 59.5179 86.0481 58.543 83.7126C57.568 81.3772 57.065 78.8736 57.0625 76.3447V74.1367C57.0593 71.6058 57.5575 69.0991 58.5288 66.7599C59.5 64.4207 60.9252 62.2949 62.7229 60.5041C64.5206 58.7134 66.6554 57.2927 69.0054 56.3234C71.3553 55.3541 73.8743 54.8552 76.4182 54.8552Z" fill="#18181A" stroke="#18181A" stroke-width="2" stroke-linecap="round" stroke-linejoin="round"/>
<ellipse cx="89.2025" cy="82.7842" rx="2.2241" ry="2.2178" fill="#18181A"/>
<ellipse cx="95.4701" cy="82.7842" rx="2.2241" ry="2.2178" fill="#18181A"/>
<ellipse cx="92.1927" cy="88.178" rx="2.2241" ry="2.2178" fill="#18181A"/>
<ellipse cx="98.4623" cy="88.178" rx="2.2241" ry="2.2178" fill="#18181A"/>
<path d="M100.756 59.0806L133.372 63.2751H100.947" stroke="#18181A" stroke-width="2" stroke-linecap="round" stroke-linejoin="bevel"/>
<path d="M146.447 138.876V158.071H131.666V145.685C131.666 144.274 131.102 142.92 130.099 141.923C129.097 140.925 127.736 140.364 126.318 140.364C125.615 140.364 124.919 140.501 124.27 140.768C123.62 141.035 123.03 141.426 122.533 141.92C122.036 142.415 121.641 143.001 121.372 143.647C121.103 144.293 120.965 144.985 120.965 145.685V158.071H106.184V138.876" stroke="#18181A" stroke-width="2" stroke-linecap="round" stroke-linejoin="bevel"/>
<ellipse cx="124.668" cy="123.235" rx="7.604" ry="7.565" fill="white" stroke="#18181A" stroke-width="2" stroke-linecap="round" stroke-linejoin="round"/>
<path d="M124.668 110.688V115.67" stroke="#18181A" stroke-width="2" stroke-linecap="round" stroke-linejoin="round"/>
<path d="M105 110H152" stroke="#18181A" stroke-width="4" stroke-linecap="square" stroke-linejoin="round"/>
<path d="M31 158H186" stroke="#18181A" stroke-width="2" stroke-linecap="round" stroke-linejoin="round"/>
<path d="M43.3004 143.772C43.9366 142.445 44.8697 141.282 46.0281 140.37C47.1865 139.459 48.5394 138.823 49.983 138.513C52.0845 138.05 54.2815 138.303 56.2207 139.233C58.348 140.241 60.0287 141.992 60.9436 144.153C61.4894 145.413 61.7569 146.775 61.7281 148.147C61.6993 149.519 61.3749 150.869 60.7768 152.105C60.1837 153.343 59.3312 154.44 58.2767 155.322C57.2221 156.205 55.9899 156.853 54.6628 157.222C52.3966 157.849 49.9781 157.631 47.8627 156.607C45.9211 155.686 44.3454 154.144 43.3869 152.228C42.725 150.919 42.3729 149.476 42.3579 148.01C42.3429 146.544 42.6653 145.094 43.3004 143.772Z" fill="#FFB319" stroke="#18181A" stroke-width="2" stroke-linecap="round" stroke-linejoin="bevel"/>
<path d="M54.8305 149.252C55.4236 148.014 56.276 146.917 57.3305 146.034C58.3851 145.152 59.6173 144.504 60.9444 144.135C61.4901 145.395 61.7577 146.757 61.7289 148.129C61.7001 149.501 61.3757 150.85 60.7775 152.087C60.1845 153.325 59.332 154.422 58.2774 155.304C57.2229 156.187 55.9907 156.835 54.6636 157.204C54.1178 155.944 53.8503 154.582 53.8791 153.21C53.9078 151.838 54.2323 150.488 54.8305 149.252Z" fill="#FFB319" stroke="#18181A" stroke-width="2" stroke-linecap="round" stroke-linejoin="bevel"/>
<path d="M43.3006 143.772C43.9368 142.445 44.8698 141.282 46.0283 140.37C47.1867 139.459 48.5396 138.823 49.9832 138.513C50.6463 139.826 50.9983 141.272 51.0122 142.741C51.0262 144.21 50.7016 145.663 50.0636 146.988C49.4274 148.314 48.4942 149.476 47.3357 150.387C46.1772 151.298 44.8243 151.932 43.3809 152.241C42.718 150.929 42.3659 149.484 42.352 148.015C42.3381 146.547 42.6626 145.095 43.3006 143.772Z" fill="#FFB319" stroke="#18181A" stroke-width="2" stroke-linecap="round" stroke-linejoin="bevel"/>
</svg>
