<svg width="24" height="24" viewBox="0 0 24 24" fill="none" xmlns="http://www.w3.org/2000/svg">
<path fill-rule="evenodd" clip-rule="evenodd" d="M16.8852 3.08418C17.4196 2.54999 18.1443 2.24989 18.9 2.24989C19.6559 2.24989 20.3808 2.55017 20.9153 3.08467C21.4498 3.61917 21.7501 4.34411 21.7501 5.1C21.7501 5.85561 21.4501 6.58029 20.9159 7.11473C20.9157 7.11493 20.9161 7.11454 20.9159 7.11473L19.6335 8.40171C19.6045 8.44734 19.5701 8.49052 19.5303 8.53033C19.4912 8.56948 19.4488 8.6034 19.404 8.63209L12.5313 15.5294C12.3905 15.6706 12.1994 15.75 12 15.75H9C8.58579 15.75 8.25 15.4142 8.25 15V12C8.25 11.8006 8.32939 11.6095 8.47062 11.4687L15.3679 4.59603C15.3966 4.55123 15.4305 4.50883 15.4697 4.46967C15.5095 4.42985 15.5527 4.39545 15.5983 4.36646L16.8852 3.08418C16.8853 3.08401 16.885 3.08434 16.8852 3.08418ZM16.0116 6.07221L9.75 12.3114V14.25H11.6886L17.9278 7.98845L16.0116 6.07221ZM18.9866 6.92589L17.0741 5.01345L17.9453 4.14533C18.1985 3.89214 18.5419 3.74989 18.9 3.74989C19.2581 3.74989 19.6015 3.89214 19.8547 4.14533C20.1079 4.39852 20.2501 4.74193 20.2501 5.1C20.2501 5.45807 20.1079 5.80148 19.8547 6.05467L19.8537 6.05562L18.9866 6.92589ZM4.05546 7.05546C4.57118 6.53973 5.27065 6.25 6 6.25H7C7.41421 6.25 7.75 6.58579 7.75 7C7.75 7.41421 7.41421 7.75 7 7.75H6C5.66848 7.75 5.35054 7.8817 5.11612 8.11612C4.8817 8.35054 4.75 8.66848 4.75 9V18C4.75 18.3315 4.8817 18.6495 5.11612 18.8839C5.35054 19.1183 5.66848 19.25 6 19.25H15C15.3315 19.25 15.6495 19.1183 15.8839 18.8839C16.1183 18.6495 16.25 18.3315 16.25 18V17C16.25 16.5858 16.5858 16.25 17 16.25C17.4142 16.25 17.75 16.5858 17.75 17V18C17.75 18.7293 17.4603 19.4288 16.9445 19.9445C16.4288 20.4603 15.7293 20.75 15 20.75H6C5.27065 20.75 4.57118 20.4603 4.05546 19.9445C3.53973 19.4288 3.25 18.7293 3.25 18V9C3.25 8.27065 3.53973 7.57118 4.05546 7.05546Z" fill="currentColor"></path>
</svg>
